<svg xmlns="http://www.w3.org/2000/svg" xmlns:xlink="http://www.w3.org/1999/xlink" width="1000" zoomAndPan="magnify" viewBox="0 0 750 749.999995" height="1000" preserveAspectRatio="xMidYMid meet" version="1.0"><defs><clipPath id="f478a28af8"><path d="M 2.046875 0 L 738 0 L 738 741 L 2.046875 741 Z M 2.046875 0 " clip-rule="nonzero"/></clipPath></defs><g clip-path="url(#f478a28af8)"><path fill="#7f451d" d="M 736.476562 395.453125 C 735.628906 413.683594 733.746094 432.15625 727.058594 449.066406 C 724.9375 454.492188 722.296875 459.644531 719.132812 464.535156 C 713.691406 484.082031 706.65625 503.035156 698.027344 521.398438 C 687.585938 563.523438 656.316406 602.253906 646.882812 613.613281 C 642.660156 618.695312 638.082031 623.683594 633.992188 628.914062 C 630.050781 633.9375 625.664062 638.527344 620.824219 642.6875 C 615.984375 646.847656 610.789062 650.5 605.234375 653.644531 C 600.230469 656.578125 595.902344 660.296875 592.246094 664.804688 C 584.761719 673.902344 579.257812 684.769531 570.003906 692.164062 C 553.863281 705.160156 530.839844 704.316406 511.664062 712.164062 C 497.882812 717.816406 486.140625 727.953125 471.984375 732.566406 C 462.160156 735.816406 451.65625 736.160156 441.328125 736.515625 L 324.117188 740.496094 C 315.84375 740.976562 307.582031 740.847656 299.324219 740.105469 C 286.160156 738.578125 273.589844 733.964844 260.976562 729.9375 C 232.253906 720.789062 199.863281 712.667969 180.363281 691.027344 C 177.414062 687.769531 174.820312 684.25 172.585938 680.464844 C 169.613281 675.429688 167.179688 669.757812 162.46875 666.300781 C 156.722656 662.105469 149.074219 662.203125 142.09375 660.871094 C 126.910156 657.964844 114.117188 647.875 103.125 636.957031 C 95.019531 628.882812 87.558594 620.25 80.742188 611.0625 C 73.925781 601.875 67.828125 592.230469 62.449219 582.132812 C 57.070312 572.03125 52.46875 561.589844 48.644531 550.804688 C 44.824219 540.019531 41.820312 529.007812 39.640625 517.773438 C 37.902344 508.660156 36.621094 499.171875 31.894531 491.179688 C 28.503906 485.445312 23.535156 480.8125 19.441406 475.550781 C 3.011719 454.332031 2.476562 425.1875 2.65625 398.378906 C 2.816406 373.988281 2.984375 349.617188 3.15625 325.269531 L 3.273438 325.269531 C 2.851562 323.277344 2.601562 321.261719 2.523438 319.226562 C 2.378906 313.410156 4.050781 307.707031 5.773438 302.136719 C 18.433594 260.566406 33.644531 219.949219 51.394531 180.285156 C 58.019531 165.46875 65.035156 150.75 74.128906 137.316406 C 77.433594 132.40625 81 127.695312 84.828125 123.179688 C 115.824219 86.527344 160.699219 65.3125 204.195312 45.050781 C 244.496094 26.320312 285.558594 7.3125 329.589844 0.878906 C 335.191406 0.046875 340.46875 4.792969 346.039062 3.800781 C 355.941406 2.132812 365.910156 1.144531 375.945312 0.828125 C 377.796875 0.675781 379.601562 0.886719 381.367188 1.460938 C 382.503906 1.460938 383.65625 1.460938 384.8125 1.542969 C 391.972656 1.949219 399.035156 3.574219 406.179688 3.738281 C 414.070312 3.898438 421.910156 2.113281 429.800781 2.113281 C 436.71875 2.144531 443.496094 3.140625 450.128906 5.101562 C 463.816406 8.902344 477.097656 15.433594 490.898438 19.253906 C 511.648438 25.003906 535.191406 25.246094 551.625 39.171875 C 564.9375 50.542969 571.222656 69.195312 586.253906 78.160156 C 595.070312 83.375 605.917969 84.515625 614.507812 90.101562 C 618.78125 93.128906 622.617188 96.632812 626.019531 100.613281 C 645.253906 121.378906 664.4375 142.1875 683.578125 163.050781 C 688.886719 168.832031 694.359375 174.925781 696.566406 182.546875 C 697.476562 186.582031 698.078125 190.664062 698.367188 194.792969 C 701.421875 218.824219 717.023438 239.277344 724.347656 262.347656 C 726.5625 269.707031 728.273438 277.179688 729.476562 284.769531 C 735.84375 321.40625 738.179688 358.304688 736.476562 395.453125 Z M 736.476562 395.453125 " fill-opacity="1" fill-rule="nonzero"/></g><path fill="#ac6935" d="M 714.457031 330.46875 C 713.746094 334.183594 712.761719 337.820312 711.503906 341.386719 C 705.300781 362.636719 710.933594 385.480469 708.695312 407.507812 C 707.871094 414.484375 706.574219 421.375 704.8125 428.175781 C 696.796875 461.253906 685.296875 493.066406 670.3125 523.621094 C 662.957031 538.601562 654.644531 553.386719 642.855469 565.179688 C 639.105469 568.953125 635.011719 572.3125 630.582031 575.253906 C 618.882812 589.667969 606.0625 603 592.117188 615.253906 C 568.039062 646.769531 527.707031 667.824219 515.644531 673.886719 C 510.269531 676.597656 504.601562 679.117188 499.277344 682.007812 C 494.144531 684.761719 488.792969 686.992188 483.222656 688.691406 C 477.648438 690.390625 471.96875 691.53125 466.171875 692.113281 C 460.953125 692.765625 456.011719 694.308594 451.347656 696.746094 C 441.75 701.617188 433.128906 708.71875 422.738281 711.5625 C 404.472656 716.566406 385.394531 707.46875 366.542969 707.046875 C 352.9375 706.738281 339.398438 710.960938 325.839844 709.675781 C 316.4375 708.765625 307.507812 705.257812 298.710938 701.78125 L 199.035156 662.367188 C 191.917969 659.753906 185.035156 656.628906 178.382812 652.992188 C 167.910156 646.917969 159.058594 638.371094 149.953125 630.476562 C 126.132812 609.648438 97.765625 588.234375 93.886719 556.765625 C 93.238281 551.453125 93.269531 545.816406 90.640625 541.203125 C 87.390625 535.597656 80.898438 532.882812 75.554688 529.210938 C 63.882812 521.234375 56.851562 508.089844 51.605469 494.964844 C 47.761719 485.238281 44.660156 475.277344 42.296875 465.089844 C 39.9375 454.898438 38.34375 444.589844 37.519531 434.160156 C 36.691406 423.734375 36.644531 413.300781 37.375 402.867188 C 38.101562 392.433594 39.597656 382.109375 41.867188 371.898438 C 43.734375 363.628906 46.101562 355.210938 45.113281 346.78125 C 44.367188 340.738281 41.867188 335.050781 40.371094 329.136719 C 34.332031 305.351562 44.480469 280.769531 54.417969 258.335938 L 81.5 197.183594 L 81.613281 197.183594 C 81.996094 195.359375 82.535156 193.582031 83.234375 191.855469 C 85.5 186.992188 88.472656 182.613281 92.148438 178.710938 C 117.902344 148.5 145.445312 120.019531 174.777344 93.269531 C 185.734375 83.28125 196.972656 73.5 209.488281 65.539062 C 214.050781 62.640625 218.753906 60 223.597656 57.609375 C 262.648438 38.242188 308.109375 36.78125 351.800781 35.710938 C 392.394531 34.703125 433.8125 33.777344 473.054688 44.433594 C 478.054688 45.796875 480.734375 51.695312 485.769531 52.898438 C 490.152344 53.953125 497.3125 56.035156 503.628906 58.179688 C 509.945312 60.324219 515.351562 62.53125 516.261719 63.832031 C 517.234375 64.238281 518.175781 64.675781 519.117188 65.148438 C 524.980469 68.089844 530.273438 72.054688 536.230469 74.78125 C 542.726562 77.789062 549.984375 79.203125 556.640625 82.027344 C 571.171875 88.21875 581.789062 100.46875 593.367188 111.417969 C 596.046875 113.9375 598.757812 116.40625 601.597656 118.695312 C 604.847656 121.34375 608.320312 123.8125 611.84375 126.25 C 624.832031 135.234375 638.40625 143.652344 645.226562 157.542969 C 652.273438 171.871094 650.730469 189.855469 660.082031 202.789062 C 665.585938 210.390625 674.242188 215.296875 679.421875 223.113281 C 681.898438 227.203125 683.835938 231.535156 685.234375 236.109375 C 693.785156 260.535156 702.28125 284.972656 710.722656 309.429688 C 713.03125 316.238281 715.398438 323.335938 714.457031 330.46875 Z M 714.457031 330.46875 " fill-opacity="1" fill-rule="nonzero"/><path fill="#e8ae74" d="M 695.054688 332.953125 C 694.390625 336.457031 693.464844 339.890625 692.28125 343.253906 C 686.449219 363.304688 691.742188 384.828125 689.632812 405.59375 C 688.855469 412.171875 687.636719 418.671875 685.980469 425.089844 C 678.4375 456.269531 667.613281 486.265625 653.507812 515.078125 C 646.589844 529.195312 638.75 543.132812 627.625 554.261719 C 624.085938 557.8125 620.226562 560.976562 616.050781 563.75 C 605.003906 577.339844 592.898438 589.902344 579.730469 601.441406 C 556.996094 631.15625 518.988281 651.011719 507.621094 656.679688 C 502.539062 659.246094 497.214844 661.554688 492.183594 664.332031 C 487.34375 666.925781 482.296875 669.023438 477.046875 670.625 C 471.792969 672.226562 466.4375 673.304688 460.976562 673.851562 C 456.054688 674.472656 451.394531 675.929688 446.996094 678.222656 C 437.953125 682.835938 429.816406 689.515625 420.027344 692.195312 C 411.730469 694.46875 403.273438 693.640625 394.746094 692.195312 C 385.574219 690.570312 376.304688 688.183594 367.046875 687.988281 C 354.222656 687.695312 341.460938 691.675781 328.679688 690.457031 C 319.816406 689.613281 311.390625 686.296875 303.109375 683.03125 L 209.132812 645.859375 C 202.417969 643.402344 195.921875 640.457031 189.648438 637.023438 C 179.777344 631.304688 171.433594 623.3125 162.84375 615.804688 C 140.386719 596.164062 113.648438 575.921875 109.992188 546.300781 C 109.375 541.296875 109.394531 535.984375 106.859375 531.679688 C 103.757812 526.402344 97.671875 523.832031 92.621094 520.390625 C 81.613281 512.867188 74.988281 500.488281 70.050781 488.089844 C 66.425781 478.921875 63.496094 469.535156 61.269531 459.929688 C 59.039062 450.324219 57.535156 440.605469 56.753906 430.773438 C 55.976562 420.945312 55.925781 411.109375 56.613281 401.273438 C 57.296875 391.433594 58.710938 381.703125 60.847656 372.074219 C 62.597656 364.261719 64.839844 356.332031 63.847656 348.40625 C 63.152344 342.6875 60.796875 337.324219 59.382812 331.753906 C 53.6875 309.332031 63.265625 286.164062 72.632812 265.011719 L 98.191406 207.304688 L 98.304688 207.304688 C 98.640625 205.582031 99.136719 203.902344 99.78125 202.269531 C 101.921875 197.683594 104.722656 193.554688 108.191406 189.871094 C 132.488281 161.394531 158.464844 134.542969 186.125 109.324219 C 196.402344 99.933594 207.007812 90.71875 218.808594 83.183594 C 223.113281 80.449219 227.550781 77.957031 232.125 75.707031 C 269.144531 57.464844 311.910156 56.097656 353.183594 55.074219 C 379.5 54.425781 406.144531 53.808594 432.238281 56.699219 C 444.152344 57.960938 455.902344 60.125 467.488281 63.199219 C 472.195312 64.480469 474.726562 70.039062 479.46875 71.175781 C 483.59375 72.167969 490.347656 74.132812 496.273438 76.148438 C 502.199219 78.160156 507.332031 80.257812 508.191406 81.476562 C 509.101562 81.867188 509.992188 82.289062 510.886719 82.726562 C 516.40625 85.488281 521.40625 89.226562 527.007812 91.808594 C 533.195312 94.652344 540 95.96875 546.25 98.632812 C 563.101562 105.925781 574.386719 121.785156 588.625 133.300781 C 602.867188 144.820312 621.585938 153.269531 629.769531 169.9375 C 636.410156 183.453125 634.949219 200.398438 643.78125 212.601562 C 648.960938 219.75 657.128906 224.378906 662 231.753906 C 664.335938 235.617188 666.164062 239.703125 667.488281 244.023438 C 675.5625 267.039062 683.570312 290.082031 691.515625 313.148438 C 693.722656 319.550781 695.949219 326.246094 695.054688 332.953125 Z M 695.054688 332.953125 " fill-opacity="1" fill-rule="nonzero"/><path fill="#161616" d="M 665.441406 313.6875 C 658.328125 293.109375 651.167969 272.527344 643.960938 251.949219 C 642.785156 248.09375 641.160156 244.441406 639.089844 240.984375 C 634.722656 234.386719 627.414062 230.261719 622.851562 223.859375 C 617.65625 216.664062 616.457031 207.613281 614.539062 198.855469 C 613.671875 194.304688 612.269531 189.921875 610.335938 185.714844 C 604.117188 173.074219 591.242188 165.8125 579.613281 157.527344 C 577.535156 156.046875 575.507812 154.550781 573.558594 152.976562 C 570.605469 150.570312 567.796875 147.988281 565.035156 145.324219 C 555.894531 136.503906 547.257812 127 535.664062 122.074219 C 530.792969 120.011719 525.597656 118.828125 520.691406 116.910156 C 519.945312 116.617188 519.199219 116.308594 518.46875 115.96875 C 513.453125 113.675781 508.988281 110.3125 504.050781 107.84375 C 503.253906 107.453125 502.425781 107.082031 501.632812 106.738281 C 500.105469 104.53125 483.347656 99.28125 475.976562 97.527344 C 471.722656 96.503906 469.484375 91.53125 465.246094 90.394531 C 432.171875 81.394531 397.328125 82.175781 363.054688 83.019531 C 326.164062 83.945312 287.929688 85.164062 254.839844 101.492188 C 250.75 103.507812 246.78125 105.738281 242.9375 108.183594 C 232.515625 115.128906 222.773438 122.921875 213.710938 131.5625 C 188.992188 154.105469 165.777344 178.105469 144.074219 203.566406 C 140.972656 206.859375 138.46875 210.550781 136.554688 214.648438 C 135.980469 216.109375 135.542969 217.609375 135.242188 219.148438 L 135.128906 219.148438 L 112.394531 270.683594 C 103.808594 289.511719 95.25 310.226562 100.285156 330.273438 C 101.550781 335.261719 103.644531 340.023438 104.277344 345.15625 C 105.15625 352.238281 103.140625 359.339844 101.582031 366.277344 C 99.714844 374.6875 98.46875 383.1875 97.839844 391.777344 C 97.210938 400.371094 97.210938 408.960938 97.835938 417.554688 C 98.460938 426.144531 99.703125 434.648438 101.566406 443.058594 C 103.429688 451.46875 105.890625 459.699219 108.953125 467.75 C 109.230469 468.5 109.523438 469.246094 109.816406 469.992188 C 110.625 472.007812 111.4375 474.039062 112.414062 476.035156 C 116.535156 484.972656 121.960938 493.371094 129.996094 498.863281 C 134.511719 501.933594 139.949219 504.222656 142.710938 508.953125 C 145 512.835938 144.964844 517.59375 145.519531 522.0625 C 148.765625 548.542969 172.699219 566.644531 192.765625 584.207031 C 200.445312 590.914062 207.898438 598.046875 216.730469 603.179688 C 222.355469 606.289062 228.179688 608.960938 234.203125 611.191406 L 318.226562 644.414062 C 325.628906 647.339844 333.164062 650.3125 341.085938 651.058594 C 352.453125 652.148438 363.914062 648.589844 375.394531 648.851562 C 391.335938 649.191406 407.347656 656.859375 422.738281 652.652344 C 431.492188 650.265625 438.765625 644.285156 446.851562 640.175781 C 450.78125 638.109375 454.949219 636.804688 459.351562 636.257812 C 469.214844 635.269531 478.511719 632.433594 487.246094 627.746094 C 491.742188 625.308594 496.515625 623.195312 501.0625 620.90625 C 510.527344 616.128906 540.710938 600.386719 561.136719 576.75 C 562.632812 575.042969 564.078125 573.289062 565.441406 571.484375 C 567.929688 569.320312 570.375 567.085938 572.78125 564.792969 C 581.738281 556.339844 590.101562 547.335938 597.863281 537.773438 C 601.59375 535.285156 605.042969 532.453125 608.207031 529.277344 C 618.144531 519.332031 625.140625 506.871094 631.34375 494.25 C 643.984375 468.480469 653.683594 441.648438 660.441406 413.75 C 661.917969 408.011719 663 402.199219 663.6875 396.316406 C 665.570312 377.761719 660.847656 358.511719 666.058594 340.589844 C 667.117188 337.589844 667.945312 334.523438 668.542969 331.394531 C 669.402344 325.382812 667.40625 319.40625 665.441406 313.6875 Z M 643.328125 334.644531 C 642.789062 337.5 642.035156 340.300781 641.070312 343.042969 C 636.3125 359.371094 640.632812 376.917969 638.910156 393.828125 C 638.277344 399.1875 637.285156 404.480469 635.9375 409.703125 C 629.773438 435.117188 620.933594 459.5625 609.425781 483.039062 C 603.773438 494.542969 597.394531 505.898438 588.316406 514.964844 C 585.429688 517.851562 582.285156 520.429688 578.882812 522.695312 C 571.480469 531.832031 563.488281 540.414062 554.902344 548.449219 C 553.085938 550.070312 551.265625 551.792969 549.414062 553.417969 C 548.117188 555.042969 546.769531 556.765625 545.371094 558.292969 C 526.683594 579.753906 499.277344 594.035156 490.65625 598.40625 C 486.515625 600.484375 482.179688 602.417969 478.074219 604.644531 C 470.101562 608.9375 461.617188 611.546875 452.613281 612.472656 C 448.609375 612.96875 444.820312 614.152344 441.25 616.03125 C 433.878906 619.785156 427.253906 625.226562 419.265625 627.40625 C 405.234375 631.238281 390.640625 624.253906 376.109375 623.929688 C 365.636719 623.699219 355.246094 626.949219 344.835938 625.960938 C 337.613281 625.261719 330.742188 622.5625 324.003906 619.898438 L 247.386719 589.617188 C 241.917969 587.605469 236.632812 585.199219 231.523438 582.402344 C 223.40625 577.738281 216.683594 571.242188 209.683594 565.117188 C 191.386719 549.113281 169.597656 532.625 166.609375 508.480469 C 166.105469 504.402344 166.140625 500.082031 164.0625 496.539062 C 161.542969 492.234375 156.59375 490.140625 152.46875 487.328125 C 143.503906 481.203125 138.097656 471.082031 134.070312 461.023438 C 133.796875 460.328125 133.535156 459.644531 133.277344 458.960938 C 132.53125 457.027344 131.832031 455.078125 131.164062 453.113281 C 128.832031 446.164062 126.980469 439.089844 125.605469 431.890625 C 124.230469 424.691406 123.351562 417.433594 122.960938 410.113281 C 122.574219 402.792969 122.683594 395.484375 123.285156 388.179688 C 123.890625 380.875 124.984375 373.644531 126.570312 366.488281 C 128 360.117188 129.816406 353.652344 129.023438 347.1875 C 128.453125 342.539062 126.539062 338.167969 125.386719 333.621094 C 120.742188 315.359375 128.535156 296.480469 136.167969 279.242188 C 143.105469 263.582031 150.042969 247.921875 156.980469 232.257812 C 157.257812 230.855469 157.664062 229.492188 158.199219 228.164062 C 159.9375 224.429688 162.214844 221.0625 165.035156 218.058594 C 184.84375 194.867188 206.015625 172.992188 228.550781 152.441406 C 236.832031 144.574219 245.722656 137.472656 255.226562 131.140625 C 258.730469 128.910156 262.347656 126.878906 266.074219 125.050781 C 296.242188 110.167969 331.019531 109.046875 364.710938 108.21875 C 395.949219 107.4375 427.707031 106.722656 457.859375 114.925781 C 461.691406 115.96875 463.769531 120.5 467.601562 121.425781 C 474.320312 123.050781 489.601562 127.8125 490.996094 129.824219 C 491.726562 130.132812 492.472656 130.476562 493.1875 130.832031 C 497.6875 133.089844 501.761719 136.144531 506.339844 138.242188 C 511.375 140.546875 516.894531 141.636719 522.007812 143.796875 C 532.449219 148.25 540.273438 156.792969 548.523438 164.753906 C 551.121094 167.257812 553.765625 169.710938 556.542969 171.96875 C 557.972656 173.121094 559.449219 174.242188 560.960938 175.332031 C 571.835938 183.226562 584.195312 189.953125 590.070312 201.8125 C 595.476562 212.8125 594.292969 226.621094 601.4375 236.5625 C 605.660156 242.398438 612.316406 246.183594 616.292969 252.175781 C 618.195312 255.328125 619.683594 258.664062 620.757812 262.183594 C 627.339844 280.933594 633.867188 299.707031 640.339844 318.511719 C 642.238281 323.726562 644.058594 329.183594 643.328125 334.644531 Z M 643.328125 334.644531 " fill-opacity="0.15" fill-rule="nonzero"/><path fill="#161616" d="M 592.683594 332.742188 C 587.003906 316.238281 581.269531 299.742188 575.492188 283.257812 C 574.539062 280.167969 573.230469 277.238281 571.5625 274.46875 C 568.070312 269.1875 562.226562 265.871094 558.574219 260.753906 C 552.242188 252.015625 553.296875 239.878906 548.539062 230.210938 C 543.945312 220.855469 534.785156 215.183594 526.066406 209.089844 C 523.679688 207.46875 521.308594 205.746094 519.085938 203.941406 C 518.421875 203.40625 517.753906 202.851562 517.105469 202.316406 C 507.816406 194.195312 500.023438 184.023438 488.738281 179.230469 C 484.257812 177.328125 479.402344 176.371094 474.972656 174.355469 C 470.960938 172.519531 467.371094 169.839844 463.425781 167.859375 C 462.792969 167.535156 462.144531 167.242188 461.496094 166.964844 C 460.261719 165.210938 446.882812 161.003906 440.941406 159.589844 C 437.53125 158.777344 435.726562 154.714844 432.351562 153.871094 C 405.851562 146.671875 377.960938 147.371094 350.519531 147.972656 C 320.96875 148.71875 290.347656 149.695312 263.847656 162.773438 C 260.570312 164.378906 257.394531 166.167969 254.320312 168.132812 C 245.964844 173.6875 238.15625 179.921875 230.890625 186.835938 C 211.101562 204.894531 192.515625 224.121094 175.132812 244.507812 C 172.644531 247.136719 170.636719 250.09375 169.109375 253.378906 C 168.648438 254.550781 168.289062 255.753906 168.039062 256.984375 C 161.933594 270.753906 155.839844 284.507812 149.757812 298.253906 C 143.050781 313.410156 136.199219 329.996094 140.273438 346.050781 C 141.296875 350.03125 142.96875 353.863281 143.523438 357.957031 C 144.21875 363.644531 142.628906 369.332031 141.363281 374.902344 C 140.082031 380.675781 139.167969 386.507812 138.613281 392.398438 C 138.0625 398.285156 137.875 404.1875 138.058594 410.097656 C 138.242188 416.011719 138.792969 421.886719 139.710938 427.730469 C 140.625 433.574219 141.902344 439.339844 143.539062 445.023438 C 143.976562 446.535156 144.429688 448.027344 144.917969 449.507812 C 145.84375 452.367188 146.851562 455.175781 147.96875 457.972656 C 151.492188 466.839844 156.234375 475.695312 164.207031 481.089844 C 167.828125 483.558594 172.179688 485.394531 174.386719 489.210938 C 176.207031 492.316406 176.1875 496.132812 176.628906 499.707031 C 179.257812 520.828125 198.402344 535.449219 214.476562 549.472656 C 220.628906 554.847656 226.585938 560.550781 233.667969 564.660156 C 238.152344 567.113281 242.796875 569.21875 247.597656 570.980469 L 314.605469 597.542969 C 320.53125 599.882812 326.570312 602.253906 332.917969 602.871094 C 342.058594 603.734375 351.203125 600.890625 360.375 601.085938 C 373.152344 601.378906 385.980469 607.585938 398.304688 604.140625 C 405.316406 602.222656 411.144531 597.445312 417.625 594.148438 C 420.769531 592.496094 424.101562 591.453125 427.625 591.011719 C 435.523438 590.222656 442.96875 587.953125 449.96875 584.207031 C 453.570312 582.238281 457.386719 580.550781 461.023438 578.714844 C 469.144531 574.621094 496.371094 560.40625 512.640625 539.136719 C 515.691406 536.460938 518.667969 533.695312 521.570312 530.835938 C 523.777344 528.691406 525.921875 526.480469 528.066406 524.238281 C 531.734375 520.339844 535.25 516.304688 538.617188 512.136719 C 541.613281 510.15625 544.378906 507.890625 546.914062 505.34375 C 554.871094 497.386719 560.472656 487.472656 565.441406 477.289062 C 575.5625 456.667969 583.328125 435.195312 588.738281 412.871094 C 589.921875 408.277344 590.789062 403.625 591.335938 398.914062 C 592.847656 384.050781 589.066406 368.648438 593.238281 354.300781 C 594.085938 351.894531 594.75 349.433594 595.234375 346.925781 C 595.867188 342.117188 594.277344 337.324219 592.683594 332.742188 Z M 563.296875 351.035156 C 562.882812 353.191406 562.316406 355.300781 561.59375 357.371094 C 557.988281 369.71875 561.25 382.976562 559.96875 395.761719 C 559.5 399.816406 558.753906 403.820312 557.726562 407.769531 C 553.070312 426.980469 546.386719 445.457031 537.675781 463.203125 C 533.421875 471.894531 528.585938 480.488281 521.75 487.328125 C 519.570312 489.519531 517.195312 491.46875 514.621094 493.175781 C 511.664062 496.816406 508.589844 500.335938 505.398438 503.738281 C 504.148438 505.070312 502.867188 506.386719 501.582031 507.667969 C 498.585938 510.691406 495.484375 513.605469 492.28125 516.410156 C 478.300781 534.703125 454.9375 546.9375 447.871094 550.527344 C 444.753906 552.152344 441.476562 553.546875 438.375 555.238281 C 432.355469 558.464844 425.945312 560.417969 419.152344 561.101562 C 416.117188 561.476562 413.25 562.375 410.546875 563.800781 C 404.960938 566.628906 399.960938 570.738281 393.917969 572.394531 C 383.316406 575.300781 372.292969 570.023438 361.300781 569.761719 C 353.394531 569.601562 345.535156 572.054688 337.660156 571.289062 C 332.195312 570.507812 326.945312 568.988281 321.910156 566.722656 L 264.011719 543.769531 C 259.886719 542.246094 255.890625 540.429688 252.03125 538.324219 C 245.941406 534.785156 240.792969 529.878906 235.5 525.328125 C 221.683594 513.226562 205.203125 500.765625 203.027344 482.519531 C 202.636719 479.433594 202.65625 476.167969 201.097656 473.484375 C 199.195312 470.238281 195.445312 468.613281 192.328125 466.53125 C 185.542969 461.902344 181.464844 454.265625 178.429688 446.648438 C 175.863281 440.199219 173.871094 433.574219 172.453125 426.777344 C 172.453125 426.519531 172.339844 426.242188 172.292969 425.964844 C 170.585938 417.578125 169.769531 409.105469 169.847656 400.546875 C 169.921875 391.988281 170.890625 383.535156 172.746094 375.179688 C 173.835938 370.304688 175.214844 365.429688 174.597656 360.558594 C 173.898438 357.085938 172.984375 353.675781 171.855469 350.320312 C 168.347656 336.511719 174.242188 322.230469 179.972656 309.203125 L 195.707031 273.6875 C 195.914062 272.625 196.21875 271.589844 196.613281 270.585938 C 197.933594 267.769531 199.660156 265.226562 201.792969 262.964844 C 216.746094 245.417969 232.738281 228.878906 249.773438 213.347656 C 256.023438 207.398438 262.738281 202.03125 269.921875 197.246094 C 272.574219 195.5625 275.304688 194.027344 278.121094 192.632812 C 300.851562 181.390625 327.269531 180.546875 352.695312 179.914062 C 376.304688 179.328125 400.300781 178.792969 423.097656 184.980469 C 426.003906 185.777344 427.5625 189.191406 430.484375 189.855469 C 435.566406 191.058594 447.109375 194.730469 448.164062 196.191406 C 448.734375 196.4375 449.285156 196.695312 449.789062 196.957031 C 453.199219 198.660156 456.285156 200.96875 459.726562 202.5625 C 463.542969 204.300781 467.714844 205.128906 471.578125 206.769531 C 481.433594 210.960938 488.1875 219.960938 496.339844 226.929688 C 496.777344 227.320312 497.230469 227.675781 497.6875 228.050781 C 499.308594 229.320312 500.933594 230.535156 502.558594 231.707031 C 510.382812 237.214844 518.792969 242.167969 522.984375 250.601562 C 527.171875 259.035156 526.230469 269.367188 531.621094 276.886719 C 534.867188 281.289062 539.835938 284.148438 542.839844 288.683594 C 544.269531 291.0625 545.398438 293.582031 546.214844 296.238281 C 551.183594 310.425781 556.121094 324.621094 561.023438 338.820312 C 562.46875 342.785156 563.847656 346.894531 563.296875 351.035156 Z M 563.296875 351.035156 " fill-opacity="0.15" fill-rule="nonzero"/><path fill="#161616" d="M 535.695312 357.453125 C 531.667969 345.777344 527.609375 334.109375 523.519531 322.441406 C 522.855469 320.25 521.929688 318.175781 520.742188 316.21875 C 518.273438 312.484375 514.132812 310.144531 511.519531 306.472656 C 507.039062 300.28125 507.785156 291.703125 504.425781 284.847656 C 500.269531 276.417969 490.882812 272.226562 483.578125 266.296875 C 480.574219 263.875 477.84375 261.0625 475.054688 258.351562 C 474.128906 257.457031 473.1875 256.5625 472.242188 255.703125 C 469.257812 252.828125 465.878906 250.527344 462.113281 248.796875 C 458.863281 247.449219 455.503906 246.765625 452.371094 245.335938 C 449.527344 244.039062 446.996094 242.089844 444.253906 240.738281 C 443.8125 240.511719 443.34375 240.300781 442.886719 240.105469 C 442.011719 238.855469 432.511719 235.882812 428.277344 234.875 C 425.871094 234.304688 424.589844 231.496094 422.203125 230.84375 C 403.449219 225.746094 383.707031 226.183594 364.289062 226.671875 C 343.390625 227.191406 321.714844 227.890625 302.964844 237.132812 C 300.648438 238.269531 298.402344 239.53125 296.226562 240.917969 C 290.316406 244.855469 284.789062 249.277344 279.648438 254.175781 C 265.636719 266.945312 252.480469 280.542969 240.175781 294.96875 C 238.425781 296.839844 237.007812 298.9375 235.921875 301.257812 C 235.59375 302.085938 235.34375 302.933594 235.175781 303.808594 L 222.1875 333.050781 C 217.429688 343.757812 212.589844 355.503906 215.480469 366.859375 C 216.410156 369.625 217.160156 372.433594 217.738281 375.292969 C 218.242188 379.304688 217.105469 383.335938 216.210938 387.28125 C 215.128906 392.160156 214.414062 397.089844 214.070312 402.074219 C 213.722656 407.058594 213.746094 412.042969 214.140625 417.023438 C 214.535156 422.003906 215.296875 426.925781 216.425781 431.792969 C 217.554688 436.660156 219.035156 441.417969 220.871094 446.0625 C 223.371094 452.332031 226.734375 458.621094 232.238281 462.421875 C 234.785156 464.175781 237.871094 465.460938 239.445312 468.140625 C 240.730469 470.351562 240.710938 473.015625 241.070312 475.582031 C 242.9375 490.578125 256.476562 500.828125 267.84375 510.789062 C 272.03125 514.804688 276.558594 518.382812 281.433594 521.527344 C 284.609375 523.265625 287.894531 524.761719 291.289062 526.011719 L 338.960938 544.839844 C 343.113281 546.707031 347.441406 547.960938 351.949219 548.609375 C 358.441406 549.226562 364.9375 547.210938 371.433594 547.359375 C 380.476562 547.554688 389.550781 551.890625 398.269531 549.503906 C 403.140625 548.15625 407.347656 544.777344 411.925781 542.4375 C 414.152344 541.273438 416.511719 540.539062 419.003906 540.226562 C 424.59375 539.640625 429.867188 538.015625 434.820312 535.351562 C 437.367188 533.972656 440.078125 532.769531 442.644531 531.46875 C 448.410156 528.5625 467.664062 518.472656 479.160156 503.460938 C 482.734375 500.339844 486.140625 496.960938 489.40625 493.617188 L 491.664062 491.195312 C 493.675781 488.964844 495.636719 486.683594 497.539062 484.355469 C 499.65625 482.929688 501.613281 481.304688 503.402344 479.480469 C 509.035156 473.84375 512.996094 466.792969 516.503906 459.628906 C 523.675781 445.039062 529.171875 429.84375 533 414.039062 C 533.832031 410.792969 534.441406 407.507812 534.835938 404.179688 C 535.90625 393.652344 533.210938 382.75 536.183594 372.597656 C 536.78125 370.894531 537.253906 369.152344 537.59375 367.378906 C 537.730469 363.925781 537.097656 360.617188 535.695312 357.453125 Z M 501.0625 372.191406 C 500.804688 373.566406 500.441406 374.914062 499.976562 376.234375 C 497.6875 384.097656 499.765625 392.480469 498.9375 400.703125 C 498.632812 403.28125 498.15625 405.824219 497.507812 408.339844 C 494.535156 420.582031 490.273438 432.359375 484.730469 443.675781 C 482.195312 449.359375 478.8125 454.480469 474.582031 459.042969 C 473.1875 460.4375 471.671875 461.683594 470.035156 462.78125 C 465.703125 468.113281 460.957031 473.046875 455.796875 477.582031 C 451.273438 483.195312 446 487.988281 439.980469 491.957031 C 435.980469 494.667969 431.820312 497.105469 427.496094 499.269531 C 425.5 500.277344 423.40625 501.203125 421.441406 502.292969 C 417.597656 504.332031 413.511719 505.578125 409.183594 506.027344 C 407.25 506.261719 405.417969 506.832031 403.695312 507.734375 C 400.152344 509.554688 396.957031 512.167969 393.109375 513.226562 C 386.351562 515.0625 379.324219 511.699219 372.324219 511.601562 C 367.277344 511.488281 362.273438 513.046875 357.257812 512.574219 C 353.777344 512.066406 350.433594 511.09375 347.222656 509.652344 L 310.316406 495.027344 C 307.6875 494.066406 305.140625 492.90625 302.6875 491.550781 C 298.914062 489.117188 295.40625 486.34375 292.164062 483.234375 C 283.351562 475.515625 272.859375 467.574219 271.414062 455.941406 C 271.398438 453.9375 270.988281 452.019531 270.183594 450.1875 C 268.980469 448.109375 266.578125 447.101562 264.597656 445.753906 C 260.277344 442.796875 257.679688 437.9375 255.746094 433.082031 C 254.324219 429.484375 253.175781 425.804688 252.300781 422.039062 C 251.425781 418.273438 250.835938 414.460938 250.53125 410.609375 C 250.222656 406.753906 250.203125 402.898438 250.472656 399.039062 C 250.738281 395.183594 251.289062 391.367188 252.128906 387.589844 C 253.054688 384.5625 253.449219 381.464844 253.3125 378.296875 C 252.863281 376.09375 252.277344 373.929688 251.558594 371.800781 C 249.316406 362.996094 253.070312 353.929688 256.753906 345.59375 C 260.097656 338.011719 263.4375 330.46875 266.773438 322.964844 C 266.902344 322.289062 267.097656 321.632812 267.355469 320.996094 C 268.171875 319.195312 269.253906 317.570312 270.605469 316.125 C 280.128906 304.9375 290.320312 294.390625 301.175781 284.492188 C 305.164062 280.707031 309.445312 277.289062 314.019531 274.238281 C 315.707031 273.160156 317.449219 272.179688 319.25 271.300781 C 333.859375 264.132812 350.566406 263.582031 366.773438 263.175781 C 381.808594 262.800781 397.117188 262.460938 411.632812 266.425781 C 413.484375 266.929688 414.476562 269.105469 416.34375 269.542969 C 419.589844 270.324219 426.945312 272.632812 427.609375 273.589844 L 428.683594 274.078125 C 430.839844 275.164062 432.804688 276.644531 435.015625 277.652344 C 437.222656 278.660156 440.097656 279.277344 442.5625 280.332031 C 444.714844 281.285156 446.691406 282.519531 448.488281 284.035156 C 452.191406 287.058594 455.421875 290.859375 459.171875 293.898438 C 464.839844 298.480469 472.164062 301.746094 475.328125 308.277344 C 477.925781 313.589844 477.359375 320.234375 480.816406 325.027344 C 482.863281 327.835938 486.0625 329.640625 487.976562 332.546875 C 488.902344 334.078125 489.617188 335.703125 490.121094 337.421875 C 493.300781 346.457031 496.445312 355.5 499.554688 364.554688 C 500.652344 366.980469 501.15625 369.527344 501.0625 372.191406 Z M 501.0625 372.191406 " fill-opacity="0.15" fill-rule="nonzero"/><path fill="#161616" d="M 471.707031 367.804688 C 469.542969 361.53125 467.378906 355.277344 465.214844 349.039062 C 464.859375 347.859375 464.359375 346.742188 463.71875 345.691406 C 462.40625 343.695312 460.179688 342.441406 458.847656 340.492188 C 456.445312 337.242188 456.851562 332.582031 455.03125 328.910156 C 452.824219 324.394531 447.792969 322.132812 443.863281 318.964844 C 439.933594 315.796875 436.945312 311.527344 432.367188 309.574219 C 430.664062 308.859375 428.8125 308.503906 427.140625 307.722656 C 425.464844 306.945312 424.25 306.019531 422.753906 305.269531 L 422.023438 304.929688 C 421.554688 304.261719 416.472656 302.65625 414.230469 302.117188 C 412.933594 301.808594 412.25 300.300781 410.984375 299.957031 C 400.949219 297.230469 390.363281 297.457031 379.957031 297.714844 C 368.753906 298.007812 357.128906 298.367188 347.078125 303.335938 C 345.835938 303.941406 344.632812 304.617188 343.472656 305.367188 C 340.296875 307.472656 337.332031 309.835938 334.574219 312.46875 C 327.082031 319.3125 320.046875 326.601562 313.46875 334.335938 C 312.523438 335.332031 311.761719 336.453125 311.179688 337.699219 C 311 338.140625 310.867188 338.597656 310.773438 339.0625 L 303.855469 354.707031 C 301.308594 360.460938 298.710938 366.746094 300.25 372.839844 C 300.753906 374.320312 301.160156 375.824219 301.46875 377.355469 C 301.574219 379.570312 301.296875 381.738281 300.640625 383.855469 C 299.476562 389.113281 299.109375 394.425781 299.539062 399.792969 C 299.964844 405.164062 301.171875 410.351562 303.15625 415.355469 C 303.722656 417.085938 304.523438 418.699219 305.566406 420.191406 C 306.609375 421.683594 307.847656 422.988281 309.277344 424.113281 C 310.722656 424.855469 311.957031 425.859375 312.980469 427.117188 C 313.539062 428.386719 313.820312 429.714844 313.824219 431.097656 C 314.832031 439.222656 322.089844 444.648438 328.179688 449.976562 C 330.425781 452.132812 332.855469 454.054688 335.46875 455.746094 C 337.167969 456.671875 338.925781 457.46875 340.746094 458.132812 L 366.253906 468.222656 C 368.46875 469.21875 370.78125 469.886719 373.183594 470.238281 C 376.660156 470.5625 380.117188 469.488281 383.609375 469.554688 C 388.480469 469.667969 393.351562 471.992188 397.996094 470.722656 C 400.65625 469.992188 402.867188 468.171875 405.316406 466.921875 C 406.515625 466.304688 407.78125 465.910156 409.117188 465.738281 C 412.113281 465.441406 414.9375 464.582031 417.59375 463.152344 C 418.957031 462.40625 420.402344 461.773438 421.78125 461.074219 C 424.867188 459.449219 435.191406 454.136719 441.363281 446.0625 C 444.929688 442.925781 448.207031 439.515625 451.203125 435.828125 C 452.339844 435.074219 453.390625 434.210938 454.351562 433.242188 C 457.269531 430.078125 459.609375 426.53125 461.367188 422.601562 C 465.207031 414.804688 468.152344 406.683594 470.199219 398.234375 C 470.65625 396.496094 470.988281 394.738281 471.1875 392.953125 C 471.773438 387.316406 470.328125 381.464844 471.917969 376.023438 C 472.234375 375.109375 472.480469 374.179688 472.664062 373.230469 C 472.777344 371.34375 472.457031 369.535156 471.707031 367.804688 Z M 440.03125 377.371094 C 439.921875 377.96875 439.765625 378.554688 439.558594 379.125 C 438.570312 382.523438 439.558594 386.160156 439.121094 389.6875 C 438.984375 390.785156 438.78125 391.867188 438.503906 392.9375 C 437.214844 398.214844 435.375 403.296875 432.984375 408.175781 C 431.890625 410.628906 430.429688 412.835938 428.601562 414.804688 C 428.007812 415.414062 427.355469 415.953125 426.652344 416.429688 C 424.78125 418.722656 422.734375 420.851562 420.515625 422.8125 C 418.558594 425.238281 416.28125 427.308594 413.679688 429.019531 C 411.960938 430.195312 410.167969 431.246094 408.304688 432.171875 C 407.445312 432.609375 406.535156 433.015625 405.691406 433.472656 C 404.035156 434.367188 402.269531 434.90625 400.398438 435.097656 C 399.5625 435.207031 398.773438 435.457031 398.027344 435.84375 C 396.585938 436.785156 395.066406 437.570312 393.464844 438.199219 C 390.542969 438.996094 387.523438 437.550781 384.484375 437.484375 C 382.328125 437.484375 380.167969 438.117188 377.992188 437.90625 C 376.492188 437.691406 375.050781 437.269531 373.671875 436.640625 L 357.746094 430.351562 C 356.625 429.929688 355.542969 429.433594 354.496094 428.855469 C 352.871094 427.804688 351.363281 426.609375 349.96875 425.265625 C 346.152344 421.9375 341.636719 418.507812 341.003906 413.488281 C 340.996094 412.625 340.824219 411.796875 340.484375 411.003906 C 339.820312 410.1875 339.015625 409.554688 338.066406 409.101562 C 336.253906 407.652344 334.980469 405.828125 334.25 403.625 C 333.003906 400.507812 332.242188 397.273438 331.964844 393.925781 C 331.6875 390.578125 331.910156 387.265625 332.628906 383.984375 C 333.019531 382.675781 333.1875 381.335938 333.128906 379.972656 C 332.964844 379.046875 332.746094 378.136719 332.464844 377.242188 C 331.492188 373.457031 333.113281 369.523438 334.707031 365.949219 C 336.148438 362.703125 337.578125 359.453125 339.023438 356.203125 C 339.085938 355.914062 339.171875 355.632812 339.285156 355.359375 C 339.636719 354.574219 340.105469 353.871094 340.695312 353.246094 C 344.8125 348.425781 349.210938 343.882812 353.898438 339.617188 C 355.613281 337.972656 357.457031 336.496094 359.433594 335.179688 C 360.164062 334.726562 360.910156 334.304688 361.691406 333.914062 C 367.957031 330.828125 375.199219 330.664062 382.179688 330.421875 C 388.675781 330.257812 395.285156 330.113281 401.550781 331.816406 C 402.347656 332.027344 402.769531 332.972656 403.582031 333.164062 C 405.28125 333.527344 406.90625 334.105469 408.449219 334.902344 L 408.90625 335.117188 C 409.847656 335.585938 410.691406 336.21875 411.648438 336.738281 C 412.609375 337.261719 413.839844 337.4375 414.898438 337.894531 C 417.753906 339.113281 419.671875 341.792969 422.074219 343.742188 C 424.476562 345.691406 427.660156 347.136719 429.039062 349.949219 C 430.175781 352.238281 429.914062 355.113281 431.410156 357.179688 C 432.285156 358.398438 433.683594 359.175781 434.511719 360.425781 C 434.898438 361.085938 435.207031 361.777344 435.4375 362.507812 C 436.800781 366.390625 438.148438 370.304688 439.496094 374.203125 C 439.914062 375.21875 440.089844 376.277344 440.03125 377.371094 Z M 440.03125 377.371094 " fill-opacity="0.15" fill-rule="nonzero"/><path fill="#161616" d="M 415.644531 381.53125 C 415.039062 379.929688 414.421875 378.304688 413.792969 376.65625 C 413.691406 376.355469 413.550781 376.074219 413.371094 375.8125 C 412.996094 375.292969 412.363281 374.984375 411.972656 374.480469 C 411.292969 373.636719 411.40625 372.449219 410.886719 371.507812 C 410.367188 370.566406 408.824219 369.769531 407.640625 368.957031 C 406.664062 368.011719 405.582031 367.210938 404.390625 366.550781 C 403.90625 366.375 403.386719 366.277344 402.898438 366.082031 C 402.410156 365.886719 402.085938 365.640625 401.664062 365.449219 L 401.453125 365.367188 C 400.742188 365.027344 400.003906 364.789062 399.230469 364.652344 C 398.871094 364.570312 398.675781 364.179688 398.304688 364.082031 C 395.390625 363.507812 392.449219 363.320312 389.488281 363.515625 C 386.273438 363.378906 383.15625 363.859375 380.132812 364.960938 C 379.78125 365.105469 379.441406 365.28125 379.113281 365.480469 C 378.214844 366.011719 377.367188 366.617188 376.578125 367.300781 C 374.460938 369.042969 372.457031 370.910156 370.570312 372.90625 C 370.300781 373.152344 370.085938 373.4375 369.921875 373.765625 C 369.875 373.875 369.839844 373.992188 369.808594 374.105469 L 367.84375 378.121094 C 367.394531 378.804688 367.085938 379.550781 366.90625 380.347656 C 366.730469 381.148438 366.703125 381.957031 366.820312 382.765625 C 366.964844 383.140625 367.078125 383.527344 367.160156 383.917969 C 367.1875 384.476562 367.109375 385.015625 366.933594 385.542969 C 366.59375 386.898438 366.484375 388.273438 366.609375 389.664062 C 366.730469 391.058594 367.078125 392.390625 367.648438 393.667969 C 367.992188 394.597656 368.570312 395.34375 369.386719 395.910156 C 369.804688 396.097656 370.171875 396.355469 370.488281 396.6875 C 370.644531 397.011719 370.726562 397.355469 370.734375 397.710938 C 371.007812 399.777344 373.070312 401.191406 374.808594 402.585938 C 375.453125 403.140625 376.140625 403.632812 376.871094 404.066406 C 377.363281 404.296875 377.867188 404.503906 378.382812 404.683594 L 385.640625 407.265625 C 386.273438 407.523438 386.925781 407.695312 387.601562 407.785156 C 388.59375 407.867188 389.585938 407.589844 390.574219 407.605469 C 391.925781 407.882812 393.289062 407.980469 394.667969 407.898438 C 395.390625 407.644531 396.085938 407.320312 396.746094 406.925781 C 397.085938 406.769531 397.441406 406.671875 397.816406 406.632812 C 398.660156 406.550781 399.46875 406.328125 400.234375 405.964844 C 400.625 405.769531 401.03125 405.609375 401.421875 405.429688 C 403.542969 404.53125 405.398438 403.246094 406.988281 401.578125 C 407.996094 400.789062 408.925781 399.914062 409.78125 398.964844 C 410.101562 398.773438 410.402344 398.550781 410.675781 398.296875 C 411.507812 397.511719 412.171875 396.601562 412.671875 395.570312 C 413.757812 393.582031 414.59375 391.496094 415.1875 389.3125 C 415.320312 388.867188 415.417969 388.410156 415.480469 387.949219 C 415.398438 386.496094 415.464844 385.050781 415.675781 383.609375 C 415.769531 383.378906 415.839844 383.140625 415.886719 382.894531 C 415.933594 382.417969 415.851562 381.964844 415.644531 381.53125 Z M 415.644531 381.53125 " fill-opacity="0.15" fill-rule="nonzero"/><path fill="#ac6935" d="M 611.8125 126.25 L 448.488281 284.070312 L 593.335938 111.417969 C 596.015625 113.9375 598.726562 116.40625 601.566406 118.695312 C 604.832031 121.34375 608.289062 123.796875 611.8125 126.25 Z M 611.8125 126.25 " fill-opacity="1" fill-rule="nonzero"/><path fill="#ac6935" d="M 61.089844 499.578125 L 178.21875 421.96875 L 69.988281 511.113281 C 68.753906 509.210938 67.488281 507.34375 66.121094 505.558594 C 64.5625 503.507812 62.84375 501.527344 61.089844 499.578125 Z M 61.089844 499.578125 " fill-opacity="1" fill-rule="nonzero"/><path fill="#ac6935" d="M 590.800781 610.183594 C 548.585938 563.183594 511.519531 518.113281 469.304688 471.113281 L 605.902344 594.585938 C 604.179688 597.136719 602.523438 599.738281 601.03125 602.417969 C 599.210938 605.519531 592.410156 606.871094 590.800781 610.183594 Z M 590.800781 610.183594 " fill-opacity="1" fill-rule="nonzero"/><path fill="#161616" d="M 695.054688 332.953125 C 694.390625 336.457031 693.464844 339.890625 692.28125 343.253906 C 686.449219 363.304688 691.742188 384.828125 689.632812 405.59375 C 688.855469 412.171875 687.636719 418.671875 685.980469 425.089844 C 678.4375 456.269531 667.613281 486.265625 653.507812 515.078125 C 646.589844 529.195312 638.75 543.132812 627.625 554.261719 C 624.085938 557.8125 620.226562 560.976562 616.050781 563.75 C 605.003906 577.339844 592.898438 589.902344 579.730469 601.441406 C 556.996094 631.15625 518.988281 651.011719 507.621094 656.679688 C 502.539062 659.246094 497.214844 661.554688 492.183594 664.332031 C 487.34375 666.925781 482.296875 669.023438 477.046875 670.625 C 471.792969 672.226562 466.4375 673.304688 460.976562 673.851562 C 456.054688 674.472656 451.394531 675.929688 446.996094 678.222656 C 437.953125 682.835938 429.816406 689.515625 420.027344 692.195312 C 411.730469 694.46875 403.273438 693.640625 394.746094 692.195312 C 455.292969 673.269531 511.941406 642.757812 556.574219 601.589844 C 561.71875 596.867188 566.691406 591.992188 571.496094 586.96875 C 587.777344 570.085938 601.902344 551.558594 613.875 531.386719 C 632.285156 500.128906 644.480469 466.0625 654.660156 431.734375 C 667.046875 389.996094 676.691406 346.375 669.546875 303.597656 C 662.0625 258.414062 636.410156 218.027344 603.695312 183.242188 C 593.398438 172.363281 582.574219 162.035156 571.222656 152.261719 C 567.398438 149.011719 563.546875 145.761719 559.660156 142.515625 C 554.320312 138.144531 548.929688 133.871094 543.425781 129.664062 C 527.96875 117.804688 511.957031 106.578125 495.558594 95.789062 C 474.921875 82.191406 453.683594 69.308594 432.238281 56.796875 C 444.152344 58.058594 455.902344 60.222656 467.488281 63.296875 C 472.195312 64.578125 474.726562 70.136719 479.46875 71.273438 C 483.59375 72.265625 490.347656 74.230469 496.273438 76.246094 C 502.199219 78.257812 507.332031 80.355469 508.191406 81.574219 C 509.101562 81.964844 509.992188 82.386719 510.886719 82.824219 C 516.40625 85.585938 521.40625 89.324219 527.007812 91.90625 C 533.195312 94.75 540 96.066406 546.25 98.730469 C 563.101562 105.925781 574.386719 121.785156 588.625 133.300781 C 602.867188 144.820312 621.585938 153.269531 629.769531 169.9375 C 636.410156 183.453125 634.949219 200.398438 643.78125 212.601562 C 648.960938 219.75 657.128906 224.378906 662 231.753906 C 664.335938 235.617188 666.164062 239.703125 667.488281 244.023438 C 675.5625 267.039062 683.570312 290.082031 691.515625 313.148438 C 693.722656 319.550781 695.949219 326.246094 695.054688 332.953125 Z M 695.054688 332.953125 " fill-opacity="0.08" fill-rule="nonzero"/></svg>