<svg xmlns="http://www.w3.org/2000/svg" xmlns:xlink="http://www.w3.org/1999/xlink" width="2419" zoomAndPan="magnify" viewBox="0 0 1814.25 3061.499874" height="4082" preserveAspectRatio="xMidYMid meet" version="1.0"><defs><clipPath id="0bd62acac8"><path d="M 24 144 L 1813.5 144 L 1813.5 2881 L 24 2881 Z M 24 144 " clip-rule="nonzero"/></clipPath><clipPath id="fb6644d990"><path d="M 0.230469 0.703125 L 1789.5 0.703125 L 1789.5 2734.898438 L 0.230469 2734.898438 Z M 0.230469 0.703125 " clip-rule="nonzero"/></clipPath><clipPath id="e8f67da455"><path d="M 1700 598 L 1789.5 598 L 1789.5 2138 L 1700 2138 Z M 1700 598 " clip-rule="nonzero"/></clipPath><clipPath id="44571ea499"><path d="M 0.230469 1792 L 89 1792 L 89 1882 L 0.230469 1882 Z M 0.230469 1792 " clip-rule="nonzero"/></clipPath><clipPath id="b496ddbe7f"><rect x="0" width="1790" y="0" height="2737"/></clipPath></defs><g clip-path="url(#0bd62acac8)"><g transform="matrix(1, 0, 0, 1, 24, 144)"><g clip-path="url(#b496ddbe7f)"><path fill="#dda059" d="M 2.015625 2562.84375 L 2.015625 343.835938 L 87.085938 343.835938 L 87.085938 258.480469 L 172.09375 258.480469 L 172.09375 173.121094 L 257.101562 173.121094 L 257.101562 87.816406 L 427.179688 87.816406 L 427.179688 2.457031 L 1362.515625 2.457031 L 1362.515625 87.816406 L 1532.59375 87.816406 L 1532.59375 173.121094 L 1617.601562 173.121094 L 1617.601562 258.480469 L 1702.671875 258.480469 L 1702.671875 343.835938 L 1787.679688 343.835938 L 1787.679688 2562.84375 L 1702.671875 2562.84375 L 1702.671875 2648.203125 L 1617.601562 2648.203125 L 1617.601562 2733.507812 L 172.09375 2733.507812 L 172.09375 2648.203125 L 87.085938 2648.203125 L 87.085938 2562.84375 Z M 2.015625 2562.84375 " fill-opacity="1" fill-rule="nonzero"/><path fill="#a67a5b" d="M 256.519531 224.648438 L 172.09375 224.648438 L 172.09375 173.121094 L 256.519531 173.121094 Z M 426.535156 87.816406 L 257.101562 87.816406 L 257.101562 139.347656 L 426.535156 139.347656 Z M 39.699219 2562.84375 L 87.085938 2562.84375 L 87.085938 2614.375 L 124.710938 2614.375 L 124.710938 2648.203125 L 172.09375 2648.203125 L 172.09375 2699.734375 L 1617.019531 2699.734375 L 1617.019531 2614.375 L 1702.027344 2614.375 L 1702.027344 2529.015625 L 1787.035156 2529.015625 L 1787.035156 343.835938 L 1702.671875 343.835938 L 1702.671875 263.269531 L 1702.027344 263.269531 L 1702.027344 258.480469 L 1617.601562 258.480469 L 1617.601562 177.910156 L 1617.019531 177.910156 L 1617.019531 173.121094 L 1532.59375 173.121094 L 1532.59375 92.605469 L 1531.949219 92.605469 L 1531.949219 87.816406 L 1362.515625 87.816406 L 1362.515625 7.25 L 1361.933594 7.25 L 1361.933594 2.457031 L 427.179688 2.457031 L 427.179688 53.988281 L 1315.191406 53.988281 L 1315.191406 139.347656 L 1485.210938 139.347656 L 1485.210938 224.648438 L 1570.277344 224.648438 L 1570.277344 310.007812 L 1655.285156 310.007812 L 1655.285156 2482.277344 L 1570.277344 2482.277344 L 1570.277344 2567.636719 L 171.449219 2567.636719 L 171.449219 2482.277344 L 86.441406 2482.277344 L 86.441406 343.835938 L 2.015625 343.835938 L 2.015625 2529.015625 L 39.699219 2529.015625 Z M 171.449219 258.480469 L 87.085938 258.480469 L 87.085938 310.007812 L 171.449219 310.007812 Z M 171.449219 258.480469 " fill-opacity="1" fill-rule="nonzero"/><g clip-path="url(#fb6644d990)"><path fill="#6b3710" d="M 85.332031 2649.957031 L 170.339844 2649.957031 L 170.339844 2735.257812 L 1619.351562 2735.257812 L 1619.351562 2649.957031 L 1704.421875 2649.957031 L 1704.421875 2564.597656 L 1789.433594 2564.597656 L 1789.433594 342.082031 L 1704.421875 342.082031 L 1704.421875 256.726562 L 1619.351562 256.726562 L 1619.351562 171.363281 L 1534.34375 171.363281 L 1534.34375 86.066406 L 1364.265625 86.066406 L 1364.265625 0.703125 L 425.425781 0.703125 L 425.425781 86.066406 L 255.351562 86.066406 L 255.351562 171.363281 L 170.339844 171.363281 L 170.339844 256.726562 L 85.332031 256.726562 L 85.332031 342.082031 L 0.265625 342.082031 L 0.265625 2564.597656 L 85.332031 2564.597656 Z M 88.835938 345.59375 L 173.84375 345.59375 L 173.84375 260.230469 L 258.855469 260.230469 L 258.855469 174.875 L 428.929688 174.875 L 428.929688 89.570312 L 1360.761719 89.570312 L 1360.761719 174.875 L 1530.839844 174.875 L 1530.839844 260.230469 L 1615.847656 260.230469 L 1615.847656 345.59375 L 1700.921875 345.59375 L 1700.921875 2561.09375 L 1615.847656 2561.09375 L 1615.847656 2646.449219 L 173.84375 2646.449219 L 173.84375 2561.09375 L 88.835938 2561.09375 Z M 88.835938 345.59375 " fill-opacity="1" fill-rule="nonzero"/></g><g clip-path="url(#e8f67da455)"><path fill="#b2a63b" d="M 1700.878906 598.007812 L 1789.414062 598.007812 L 1789.414062 686.863281 L 1700.878906 686.863281 Z M 1700.878906 2137.75 L 1789.414062 2137.75 L 1789.414062 2048.898438 L 1700.878906 2048.898438 Z M 1700.878906 2137.75 " fill-opacity="1" fill-rule="nonzero"/></g><g clip-path="url(#44571ea499)"><path fill="#b2a63b" d="M 0.242188 1792.859375 L 88.777344 1792.859375 L 88.777344 1881.710938 L 0.242188 1881.710938 Z M 0.242188 1792.859375 " fill-opacity="1" fill-rule="nonzero"/></g></g></g></g></svg>