<svg xmlns="http://www.w3.org/2000/svg" xmlns:xlink="http://www.w3.org/1999/xlink" width="3780" zoomAndPan="magnify" viewBox="0 0 2835 1417.499962" height="1890" preserveAspectRatio="xMidYMid meet" version="1.0"><defs><clipPath id="fab765a99e"><path d="M 7 119 L 2776 119 L 2776 1303.457031 L 7 1303.457031 Z M 7 119 " clip-rule="nonzero"/></clipPath><clipPath id="eaf845f7bc"><path d="M 5 113.480469 L 2779 113.480469 L 2779 1303.457031 L 5 1303.457031 Z M 5 113.480469 " clip-rule="nonzero"/></clipPath><clipPath id="8c8139a797"><path d="M 23.300781 0 L 666.652344 0 L 666.652344 708 L 23.300781 708 Z M 23.300781 0 " clip-rule="nonzero"/></clipPath><clipPath id="dbfda2ecba"><rect x="0" width="2783" y="0" height="1307"/></clipPath></defs><g transform="matrix(1, 0, 0, 1, 26, 0)"><g clip-path="url(#dbfda2ecba)"><g clip-path="url(#fab765a99e)"><path fill="#dda059" d="M 2773.800781 353.316406 L 2702.246094 353.316406 L 2702.246094 280.875 L 2701.1875 280.875 L 2701.1875 280.582031 L 2621.671875 280.582031 L 2621.671875 200.359375 L 2541.160156 200.359375 L 2541.160156 119.785156 L 2540.097656 119.785156 L 2540.097656 119.492188 L 241.363281 119.492188 L 241.363281 200.066406 L 168.921875 200.066406 L 168.921875 278.164062 L 167.035156 278.164062 L 167.035156 280.582031 L 88.230469 280.582031 L 88.230469 353.019531 L 7.597656 353.019531 L 7.597656 1069.753906 L 88.230469 1069.753906 L 88.230469 1150.269531 L 89.175781 1150.269531 L 89.175781 1150.5625 L 168.746094 1150.5625 L 168.746094 1222.765625 L 241.480469 1222.765625 L 241.480469 1303.046875 L 2541.160156 1303.046875 L 2541.160156 1223.355469 L 2540.273438 1223.355469 L 2621.851562 1223.355469 L 2621.851562 1150.859375 L 2702.425781 1150.859375 L 2702.425781 1070.105469 L 2775.039062 1070.105469 L 2775.039062 353.316406 Z M 2619.140625 356.910156 L 2619.140625 280.875 L 2622.320312 280.875 L 2622.320312 356.910156 Z M 89.175781 1067.867188 L 167.035156 1067.867188 L 167.035156 1069.753906 L 89.175781 1069.753906 Z M 2576.523438 1040.636719 L 2693.109375 1040.636719 L 2693.109375 1043.171875 L 2578.824219 1043.171875 L 2578.824219 1142.253906 L 2576.523438 1142.253906 Z M 2576.523438 1040.636719 " fill-opacity="1" fill-rule="nonzero"/></g><path fill="#dda059" d="M 2706.195312 349.71875 L 2706.195312 280.285156 L 2705.253906 280.285156 L 2705.253906 277.101562 L 2624.5625 277.101562 L 2624.5625 280.285156 L 2622.027344 280.285156 L 2622.027344 277.101562 L 2624.5625 277.101562 L 2624.5625 196.292969 L 2543.8125 196.292969 L 2543.8125 197.765625 L 2542.867188 197.765625 L 2542.867188 196.292969 L 2543.8125 196.292969 L 2543.8125 115.542969 L 241.953125 115.542969 L 241.953125 196.292969 L 169.277344 196.292969 L 169.277344 274.628906 L 168.214844 274.628906 L 168.214844 274.332031 L 166.328125 274.332031 L 166.328125 276.808594 L 167.390625 276.808594 L 167.390625 277.101562 L 88.527344 277.101562 L 88.527344 349.71875 L 7.714844 349.71875 L 7.714844 1068.515625 L 88.527344 1068.515625 L 88.527344 1066.394531 L 89.175781 1066.394531 L 89.175781 1068.515625 L 88.527344 1068.515625 L 88.527344 1149.324219 L 169.277344 1149.324219 L 169.277344 1222.058594 L 241.953125 1222.058594 L 241.953125 1302.808594 L 2543.8125 1302.808594 L 2543.8125 1223.355469 L 2588.3125 1223.355469 L 2588.3125 1222.058594 L 2624.5625 1222.058594 L 2624.5625 1149.324219 L 2705.253906 1149.324219 L 2705.253906 1068.515625 L 2777.988281 1068.515625 L 2777.988281 349.71875 Z M 2706.195312 349.71875 " fill-opacity="1" fill-rule="nonzero"/><path fill="#ffffff" d="M 562.242188 907.78125 L 562.242188 986.941406 L 641.402344 986.941406 L 641.402344 749.40625 L 562.242188 749.40625 Z M 562.242188 907.78125 " fill-opacity="1" fill-rule="nonzero"/><path fill="#ffffff" d="M 958.15625 353.492188 L 720.621094 353.492188 L 720.621094 432.652344 L 878.996094 432.652344 L 878.996094 1066.097656 L 958.15625 1066.097656 L 958.15625 432.652344 L 1116.589844 432.652344 L 1116.589844 353.492188 Z M 958.15625 353.492188 " fill-opacity="1" fill-rule="nonzero"/><path fill="#ffffff" d="M 483.082031 353.492188 L 324.707031 353.492188 L 324.707031 432.652344 L 641.402344 432.652344 L 641.402344 353.492188 Z M 483.082031 353.492188 " fill-opacity="1" fill-rule="nonzero"/><path fill="#ffffff" d="M 403.867188 986.941406 L 245.488281 986.941406 L 245.488281 1066.097656 L 562.242188 1066.097656 L 562.242188 986.941406 Z M 403.867188 986.941406 " fill-opacity="1" fill-rule="nonzero"/><path fill="#ffffff" d="M 403.867188 749.40625 L 562.242188 749.40625 L 562.242188 670.1875 L 324.707031 670.1875 L 324.707031 749.40625 Z M 403.867188 749.40625 " fill-opacity="1" fill-rule="nonzero"/><path fill="#ffffff" d="M 245.488281 511.867188 L 245.488281 670.1875 L 324.707031 670.1875 L 324.707031 432.652344 L 245.488281 432.652344 Z M 245.488281 511.867188 " fill-opacity="1" fill-rule="nonzero"/><path fill="#ffffff" d="M 1987.515625 511.867188 L 1987.515625 670.1875 L 2066.675781 670.1875 L 2066.675781 432.652344 L 1987.515625 432.652344 Z M 1987.515625 511.867188 " fill-opacity="1" fill-rule="nonzero"/><path fill="#ffffff" d="M 1829.082031 670.1875 L 1749.980469 670.1875 L 1749.980469 432.652344 L 1987.515625 432.652344 L 1987.515625 353.492188 L 1670.761719 353.492188 L 1670.761719 1066.097656 L 1749.980469 1066.097656 L 1749.980469 749.40625 L 1987.515625 749.40625 L 1987.515625 670.1875 Z M 1829.082031 670.1875 " fill-opacity="1" fill-rule="nonzero"/><path fill="#ffffff" d="M 2462.589844 353.492188 L 2145.894531 353.492188 L 2145.894531 432.652344 L 2304.332031 432.652344 L 2304.332031 1066.097656 L 2383.429688 1066.097656 L 2383.429688 432.652344 L 2541.808594 432.652344 L 2541.808594 353.492188 Z M 2462.589844 353.492188 " fill-opacity="1" fill-rule="nonzero"/><path fill="#ffffff" d="M 1512.445312 511.867188 L 1512.445312 670.1875 L 1274.910156 670.1875 L 1274.910156 432.652344 L 1195.691406 432.652344 L 1195.691406 1066.097656 L 1274.910156 1066.097656 L 1274.910156 749.40625 L 1512.445312 749.40625 L 1512.445312 1066.097656 L 1591.664062 1066.097656 L 1591.664062 432.652344 L 1512.445312 432.652344 Z M 1512.445312 511.867188 " fill-opacity="1" fill-rule="nonzero"/><path fill="#ffffff" d="M 1987.515625 907.78125 L 1987.515625 1066.097656 L 2066.675781 1066.097656 L 2066.675781 749.40625 L 1987.515625 749.40625 Z M 1987.515625 907.78125 " fill-opacity="1" fill-rule="nonzero"/><path fill="#ffffff" d="M 1433.226562 432.652344 L 1512.445312 432.652344 L 1512.445312 353.492188 L 1274.910156 353.492188 L 1274.910156 432.652344 Z M 1433.226562 432.652344 " fill-opacity="1" fill-rule="nonzero"/><path fill="#dda059" d="M 1512.445312 986.941406 L 1512.445312 749.40625 L 1433.226562 749.40625 L 1433.226562 1066.097656 L 1512.445312 1066.097656 Z M 1512.445312 986.941406 " fill-opacity="1" fill-rule="nonzero"/><path fill="#dda059" d="M 1195.691406 353.492188 L 1274.910156 353.492188 L 1274.910156 432.589844 L 1195.691406 432.589844 Z M 1195.691406 353.492188 " fill-opacity="1" fill-rule="nonzero"/><path fill="#dda059" d="M 1512.445312 591.027344 L 1512.445312 432.652344 L 1433.226562 432.652344 L 1433.226562 670.1875 L 1512.445312 670.1875 Z M 1512.445312 591.027344 " fill-opacity="1" fill-rule="nonzero"/><path fill="#dda059" d="M 1195.691406 986.941406 L 1195.691406 432.652344 L 1116.589844 432.652344 L 1116.589844 1066.097656 L 1195.691406 1066.097656 Z M 1195.691406 986.941406 " fill-opacity="1" fill-rule="nonzero"/><path fill="#dda059" d="M 2066.617188 353.492188 L 2145.835938 353.492188 L 2145.835938 432.589844 L 2066.617188 432.589844 Z M 2066.617188 353.492188 " fill-opacity="1" fill-rule="nonzero"/><path fill="#dda059" d="M 1987.515625 591.027344 L 1987.515625 432.652344 L 1908.359375 432.652344 L 1908.359375 670.1875 L 1987.515625 670.1875 Z M 1987.515625 591.027344 " fill-opacity="1" fill-rule="nonzero"/><path fill="#dda059" d="M 1670.761719 986.941406 L 1670.761719 353.492188 L 1591.664062 353.492188 L 1591.664062 1066.097656 L 1670.761719 1066.097656 Z M 1670.761719 986.941406 " fill-opacity="1" fill-rule="nonzero"/><path fill="#dda059" d="M 2304.332031 986.941406 L 2304.332031 432.652344 L 2225.054688 432.652344 L 2225.054688 1066.097656 L 2304.332031 1066.097656 Z M 2304.332031 986.941406 " fill-opacity="1" fill-rule="nonzero"/><path fill="#dda059" d="M 878.996094 986.941406 L 878.996094 432.652344 L 799.777344 432.652344 L 799.777344 1066.097656 L 878.996094 1066.097656 Z M 878.996094 986.941406 " fill-opacity="1" fill-rule="nonzero"/><path fill="#dda059" d="M 1987.515625 986.941406 L 1987.515625 749.40625 L 1908.359375 749.40625 L 1908.359375 1066.097656 L 1987.515625 1066.097656 Z M 1987.515625 986.941406 " fill-opacity="1" fill-rule="nonzero"/><path fill="#dda059" d="M 245.429688 670.1875 L 324.648438 670.1875 L 324.648438 749.40625 L 245.429688 749.40625 Z M 245.429688 670.1875 " fill-opacity="1" fill-rule="nonzero"/><path fill="#dda059" d="M 2383.429688 1145.316406 L 248.90625 1145.316406 L 248.90625 1221.765625 L 2541.808594 1221.765625 L 2541.808594 1145.316406 Z M 2383.429688 1145.316406 " fill-opacity="1" fill-rule="nonzero"/><path fill="#dda059" d="M 2541.808594 1145.316406 L 2542.691406 1145.316406 L 2542.691406 1140.957031 L 2620.964844 1140.957031 L 2620.964844 1066.097656 L 2541.808594 1066.097656 Z M 2541.808594 1145.316406 " fill-opacity="1" fill-rule="nonzero"/><path fill="#dda059" d="M 2623.5 357.5 L 2623.5 353.492188 L 2620.964844 353.492188 L 2620.964844 1066.097656 L 2696.175781 1066.097656 L 2696.175781 357.5 Z M 2623.5 357.5 " fill-opacity="1" fill-rule="nonzero"/><path fill="#dda059" d="M 166.328125 986.941406 L 245.429688 986.941406 L 245.429688 1066.097656 L 166.328125 1066.097656 Z M 166.328125 986.941406 " fill-opacity="1" fill-rule="nonzero"/><path fill="#dda059" d="M 562.242188 907.78125 L 562.242188 749.40625 L 483.082031 749.40625 L 483.082031 986.941406 L 562.242188 986.941406 Z M 562.242188 907.78125 " fill-opacity="1" fill-rule="nonzero"/><path fill="#dda059" d="M 641.402344 353.492188 L 720.558594 353.492188 L 720.558594 432.589844 L 641.402344 432.589844 Z M 641.402344 353.492188 " fill-opacity="1" fill-rule="nonzero"/><path fill="#dda059" d="M 245.429688 353.492188 L 324.648438 353.492188 L 324.648438 432.589844 L 245.429688 432.589844 Z M 245.429688 353.492188 " fill-opacity="1" fill-rule="nonzero"/><path fill="#dda059" d="M 245.488281 511.867188 L 245.488281 432.652344 L 166.328125 432.652344 L 166.328125 670.1875 L 245.488281 670.1875 Z M 245.488281 511.867188 " fill-opacity="1" fill-rule="nonzero"/><path fill="#dda059" d="M 87.464844 430.234375 L 87.464844 432.652344 L 166.328125 432.652344 L 166.328125 357.5 L 87.464844 357.5 Z M 87.464844 430.234375 " fill-opacity="1" fill-rule="nonzero"/><path fill="#dda059" d="M 2542.691406 276.808594 L 2542.691406 274.332031 L 2541.808594 274.332031 L 2541.808594 353.492188 L 2620.964844 353.492188 L 2620.964844 276.808594 Z M 2542.691406 276.808594 " fill-opacity="1" fill-rule="nonzero"/><path fill="#dda059" d="M 2462.589844 196.058594 L 248.90625 196.058594 L 248.90625 276.808594 L 168.214844 276.808594 L 168.214844 353.492188 L 324.707031 353.492188 L 324.707031 274.332031 L 2541.808594 274.332031 L 2541.808594 196.058594 Z M 2462.589844 196.058594 " fill-opacity="1" fill-rule="nonzero"/><g clip-path="url(#eaf845f7bc)"><path fill="#6b3710" d="M 2705.664062 348.011719 L 2705.664062 275.335938 L 2624.972656 275.335938 L 2624.972656 194.523438 L 2544.164062 194.523438 L 2544.164062 113.773438 L 239.535156 113.773438 L 239.535156 194.523438 L 166.742188 194.523438 L 166.742188 275.335938 L 85.992188 275.335938 L 85.992188 348.011719 L 5.183594 348.011719 L 5.183594 1069.753906 L 85.992188 1069.753906 L 85.992188 1150.503906 L 166.742188 1150.503906 L 166.742188 1223.355469 L 239.417969 1223.355469 L 239.417969 1304.105469 L 2544.046875 1304.105469 L 2544.046875 1223.355469 L 2624.855469 1223.355469 L 2624.855469 1150.503906 L 2705.546875 1150.503906 L 2705.546875 1069.753906 L 2778.28125 1069.753906 L 2778.28125 348.011719 Z M 2694.40625 430.234375 L 2694.40625 1066.808594 L 2622.027344 1066.808594 L 2622.027344 1139.480469 L 2541.160156 1139.480469 L 2541.160156 1220.292969 L 250.378906 1220.292969 L 250.378906 1139.480469 L 169.6875 1139.480469 L 169.6875 1066.808594 L 89.175781 1066.808594 L 89.175781 358.972656 L 169.6875 358.972656 L 169.6875 278.28125 L 250.378906 278.28125 L 250.378906 197.765625 L 2541.160156 197.765625 L 2541.160156 278.28125 L 2621.96875 278.28125 L 2621.96875 358.972656 L 2694.40625 358.972656 Z M 2694.40625 430.234375 " fill-opacity="1" fill-rule="nonzero"/></g><g clip-path="url(#8c8139a797)"><path fill="#ffb502" d="M 49.023438 166.992188 L 23.300781 166.992188 L 23.300781 141.269531 L 126.246094 141.269531 L 126.246094 89.796875 L 151.96875 89.796875 L 151.96875 -13.117188 L 177.695312 -13.117188 L 177.695312 64.074219 L 203.445312 64.074219 L 203.445312 89.796875 L 229.167969 89.796875 L 229.167969 115.546875 L 254.917969 115.546875 L 254.917969 141.269531 L 306.363281 141.269531 L 306.363281 166.992188 L 254.917969 166.992188 L 254.917969 192.738281 L 229.167969 192.738281 L 229.167969 218.460938 L 203.445312 218.460938 L 203.445312 321.402344 L 177.695312 321.402344 L 177.695312 244.210938 L 151.96875 244.210938 L 151.96875 218.460938 L 126.246094 218.460938 L 126.246094 192.738281 L 100.496094 192.738281 L 100.496094 166.992188 Z M 280.640625 527.257812 L 280.640625 501.535156 L 229.167969 501.535156 L 229.167969 450.066406 L 203.445312 450.066406 L 203.445312 398.59375 L 177.695312 398.59375 L 177.695312 475.789062 L 151.96875 475.789062 L 151.96875 501.535156 L 49.023438 501.535156 L 49.023438 527.257812 L 100.496094 527.257812 L 100.496094 552.980469 L 126.246094 552.980469 L 126.246094 604.453125 L 151.96875 604.453125 L 151.96875 707.394531 L 177.695312 707.394531 L 177.695312 630.199219 L 203.445312 630.199219 L 203.445312 578.730469 L 229.167969 578.730469 L 229.167969 552.980469 L 332.113281 552.980469 L 332.113281 527.257812 Z M 640.929688 269.933594 L 589.457031 269.933594 L 589.457031 244.210938 L 563.707031 244.210938 L 563.707031 218.460938 L 537.980469 218.460938 L 537.980469 115.546875 L 512.257812 115.546875 L 512.257812 192.738281 L 486.507812 192.738281 L 486.507812 218.460938 L 460.785156 218.460938 L 460.785156 269.933594 L 435.035156 269.933594 L 435.035156 295.652344 L 357.835938 295.652344 L 357.835938 321.402344 L 460.785156 321.402344 L 460.785156 347.125 L 486.507812 347.125 L 486.507812 424.316406 L 512.257812 424.316406 L 512.257812 475.789062 L 537.980469 475.789062 L 537.980469 347.125 L 563.707031 347.125 L 563.707031 321.402344 L 589.457031 321.402344 L 589.457031 295.652344 L 666.652344 295.652344 L 666.652344 269.933594 Z M 640.929688 269.933594 " fill-opacity="1" fill-rule="nonzero"/></g></g></g></svg>